<mxfile host="65bd71144e">
    <diagram name="Página-1" id="nyMocHgT1A7kSBRZ25Sn">
        <mxGraphModel dx="1206" dy="884" grid="1" gridSize="10" guides="1" tooltips="1" connect="1" arrows="1" fold="1" page="1" pageScale="1" pageWidth="827" pageHeight="1169" math="0" shadow="0">
            <root>
                <mxCell id="0"/>
                <mxCell id="1" parent="0"/>
                <mxCell id="GJvxXcti6jHUCAeI5Er2-3" value="&lt;div style=&quot;color: rgb(204, 204, 204); background-color: rgb(31, 31, 31); font-family: Consolas, &amp;quot;Courier New&amp;quot;, monospace; line-height: 19px;&quot;&gt;&lt;div style=&quot;line-height: 19px;&quot;&gt;&lt;span style=&quot;color: #4ec9b0;&quot;&gt;Account&lt;/span&gt;&lt;/div&gt;&lt;/div&gt;" style="swimlane;childLayout=stackLayout;horizontal=1;startSize=50;horizontalStack=0;rounded=1;fontSize=14;fontStyle=0;strokeWidth=2;resizeParent=0;resizeLast=1;shadow=0;dashed=0;align=center;arcSize=4;whiteSpace=wrap;html=1;" parent="1" vertex="1">
                    <mxGeometry x="520" y="70" width="160" height="290" as="geometry"/>
                </mxCell>
                <mxCell id="GJvxXcti6jHUCAeI5Er2-4" value="&lt;div&gt;&lt;div&gt;&lt;font face=&quot;Consolas, Courier New, monospace&quot; color=&quot;#9cdcfe&quot;&gt;&lt;span style=&quot;font-size: 14px;&quot;&gt;id&amp;nbsp; &amp;nbsp; &amp;nbsp; &amp;nbsp; &amp;nbsp; &amp;nbsp; &amp;nbsp; &amp;nbsp;&amp;nbsp;&lt;/span&gt;&lt;/font&gt;&lt;/div&gt;&lt;div&gt;&lt;font face=&quot;Consolas, Courier New, monospace&quot; color=&quot;#9cdcfe&quot;&gt;&lt;span style=&quot;font-size: 14px;&quot;&gt;type&amp;nbsp; &amp;nbsp; &amp;nbsp; &amp;nbsp; &amp;nbsp; &amp;nbsp; &amp;nbsp;&amp;nbsp;&lt;/span&gt;&lt;/font&gt;&lt;/div&gt;&lt;div&gt;&lt;font face=&quot;Consolas, Courier New, monospace&quot; color=&quot;#9cdcfe&quot;&gt;&lt;span style=&quot;font-size: 14px;&quot;&gt;provider&amp;nbsp; &amp;nbsp; &amp;nbsp; &amp;nbsp; &amp;nbsp;&amp;nbsp;&lt;/span&gt;&lt;/font&gt;&lt;/div&gt;&lt;div&gt;&lt;font face=&quot;Consolas, Courier New, monospace&quot; color=&quot;#9cdcfe&quot;&gt;&lt;span style=&quot;font-size: 14px;&quot;&gt;providerAccountId&amp;nbsp;&lt;/span&gt;&lt;/font&gt;&lt;/div&gt;&lt;div&gt;&lt;font face=&quot;Consolas, Courier New, monospace&quot; color=&quot;#9cdcfe&quot;&gt;&lt;span style=&quot;font-size: 14px;&quot;&gt;refresh_token&amp;nbsp; &amp;nbsp; &amp;nbsp;&lt;/span&gt;&lt;/font&gt;&lt;/div&gt;&lt;div&gt;&lt;font face=&quot;Consolas, Courier New, monospace&quot; color=&quot;#9cdcfe&quot;&gt;&lt;span style=&quot;font-size: 14px;&quot;&gt;access_token&amp;nbsp; &amp;nbsp; &amp;nbsp;&amp;nbsp;&lt;/span&gt;&lt;/font&gt;&lt;/div&gt;&lt;div&gt;&lt;font face=&quot;Consolas, Courier New, monospace&quot; color=&quot;#9cdcfe&quot;&gt;&lt;span style=&quot;font-size: 14px;&quot;&gt;expires_at&amp;nbsp; &amp;nbsp; &amp;nbsp; &amp;nbsp;&amp;nbsp;&lt;/span&gt;&lt;/font&gt;&lt;/div&gt;&lt;div&gt;&lt;font face=&quot;Consolas, Courier New, monospace&quot; color=&quot;#9cdcfe&quot;&gt;&lt;span style=&quot;font-size: 14px;&quot;&gt;token_type&amp;nbsp; &amp;nbsp; &amp;nbsp; &amp;nbsp;&amp;nbsp;&lt;/span&gt;&lt;/font&gt;&lt;/div&gt;&lt;div&gt;&lt;font face=&quot;Consolas, Courier New, monospace&quot; color=&quot;#9cdcfe&quot;&gt;&lt;span style=&quot;font-size: 14px;&quot;&gt;scope&amp;nbsp; &amp;nbsp; &amp;nbsp; &amp;nbsp; &amp;nbsp; &amp;nbsp; &amp;nbsp;&lt;/span&gt;&lt;/font&gt;&lt;/div&gt;&lt;div&gt;&lt;font face=&quot;Consolas, Courier New, monospace&quot; color=&quot;#9cdcfe&quot;&gt;&lt;span style=&quot;font-size: 14px;&quot;&gt;id_token&amp;nbsp; &amp;nbsp; &amp;nbsp; &amp;nbsp; &amp;nbsp;&amp;nbsp;&lt;/span&gt;&lt;/font&gt;&lt;/div&gt;&lt;div&gt;&lt;font face=&quot;Consolas, Courier New, monospace&quot; color=&quot;#9cdcfe&quot;&gt;&lt;span style=&quot;font-size: 14px;&quot;&gt;session_state&amp;nbsp; &amp;nbsp; &amp;nbsp;&lt;/span&gt;&lt;/font&gt;&lt;/div&gt;&lt;div&gt;&lt;font color=&quot;#ff6666&quot; face=&quot;Consolas, Courier New, monospace&quot;&gt;&lt;span style=&quot;font-size: 14px;&quot;&gt;user&amp;nbsp; &amp;nbsp; &amp;nbsp; &amp;nbsp; &amp;nbsp; &amp;nbsp; &amp;nbsp;&amp;nbsp;&lt;/span&gt;&lt;/font&gt;&lt;/div&gt;&lt;div&gt;&lt;font color=&quot;#ff6666&quot; face=&quot;Consolas, Courier New, monospace&quot;&gt;&lt;span style=&quot;font-size: 14px;&quot;&gt;userId&lt;/span&gt;&lt;/font&gt;&lt;/div&gt;&lt;/div&gt;" style="align=left;strokeColor=none;fillColor=none;spacingLeft=4;fontSize=12;verticalAlign=top;resizable=0;rotatable=0;part=1;html=1;" parent="GJvxXcti6jHUCAeI5Er2-3" vertex="1">
                    <mxGeometry y="50" width="160" height="240" as="geometry"/>
                </mxCell>
                <mxCell id="3" value="&lt;div style=&quot;color: rgb(204, 204, 204); background-color: rgb(31, 31, 31); font-family: Consolas, &amp;quot;Courier New&amp;quot;, monospace; line-height: 19px;&quot;&gt;&lt;div style=&quot;line-height: 19px;&quot;&gt;&lt;span style=&quot;color: #4ec9b0;&quot;&gt;Session&lt;/span&gt;&lt;/div&gt;&lt;/div&gt;" style="swimlane;childLayout=stackLayout;horizontal=1;startSize=50;horizontalStack=0;rounded=1;fontSize=14;fontStyle=0;strokeWidth=2;resizeParent=0;resizeLast=1;shadow=0;dashed=0;align=center;arcSize=4;whiteSpace=wrap;html=1;" parent="1" vertex="1">
                    <mxGeometry x="440" y="420" width="160" height="160" as="geometry"/>
                </mxCell>
                <mxCell id="4" value="&lt;div&gt;&lt;font face=&quot;Consolas, Courier New, monospace&quot; color=&quot;#9cdcfe&quot;&gt;&lt;span style=&quot;font-size: 14px;&quot;&gt;id&amp;nbsp; &amp;nbsp; &amp;nbsp; &amp;nbsp; &amp;nbsp; &amp;nbsp;&lt;/span&gt;&lt;/font&gt;&lt;/div&gt;&lt;div&gt;&lt;font face=&quot;Consolas, Courier New, monospace&quot; color=&quot;#9cdcfe&quot;&gt;&lt;span style=&quot;font-size: 14px;&quot;&gt;sessionToken&amp;nbsp;&lt;/span&gt;&lt;/font&gt;&lt;span style=&quot;font-size: 14px; color: rgb(156, 220, 254); font-family: Consolas, &amp;quot;Courier New&amp;quot;, monospace; background-color: initial;&quot;&gt;&amp;nbsp; &amp;nbsp; &amp;nbsp; &amp;nbsp;&lt;/span&gt;&lt;/div&gt;&lt;div&gt;&lt;font face=&quot;Consolas, Courier New, monospace&quot; color=&quot;#9cdcfe&quot;&gt;&lt;span style=&quot;font-size: 14px;&quot;&gt;expires&amp;nbsp; &amp;nbsp; &amp;nbsp;&amp;nbsp;&lt;/span&gt;&lt;/font&gt;&lt;/div&gt;&lt;div&gt;&lt;font color=&quot;#ff6666&quot; face=&quot;Consolas, Courier New, monospace&quot;&gt;&lt;span style=&quot;font-size: 14px;&quot;&gt;user&lt;/span&gt;&lt;/font&gt;&lt;/div&gt;&lt;div&gt;&lt;span style=&quot;font-family: Consolas, &amp;quot;Courier New&amp;quot;, monospace; font-size: 14px;&quot;&gt;&lt;font color=&quot;#ff6666&quot;&gt;userId&lt;/font&gt;&lt;/span&gt;&lt;font face=&quot;Consolas, Courier New, monospace&quot; color=&quot;#9cdcfe&quot;&gt;&lt;span style=&quot;font-size: 14px;&quot;&gt;&lt;br&gt;&lt;/span&gt;&lt;/font&gt;&lt;/div&gt;" style="align=left;strokeColor=none;fillColor=none;spacingLeft=4;fontSize=12;verticalAlign=top;resizable=0;rotatable=0;part=1;html=1;" parent="3" vertex="1">
                    <mxGeometry y="50" width="160" height="110" as="geometry"/>
                </mxCell>
                <mxCell id="7" value="&lt;div style=&quot;color: rgb(204, 204, 204); background-color: rgb(31, 31, 31); font-family: Consolas, &amp;quot;Courier New&amp;quot;, monospace; line-height: 19px;&quot;&gt;&lt;div style=&quot;line-height: 19px;&quot;&gt;&lt;div style=&quot;line-height: 19px;&quot;&gt;&lt;span style=&quot;color: #4ec9b0;&quot;&gt;User&lt;/span&gt;&lt;/div&gt;&lt;/div&gt;&lt;/div&gt;" style="swimlane;childLayout=stackLayout;horizontal=1;startSize=50;horizontalStack=0;rounded=1;fontSize=14;fontStyle=0;strokeWidth=2;resizeParent=0;resizeLast=1;shadow=0;dashed=0;align=center;arcSize=4;whiteSpace=wrap;html=1;" parent="1" vertex="1">
                    <mxGeometry x="70" y="170" width="160" height="230" as="geometry"/>
                </mxCell>
                <mxCell id="12" style="edgeStyle=none;html=1;" parent="7" source="8" target="7" edge="1">
                    <mxGeometry relative="1" as="geometry"/>
                </mxCell>
                <mxCell id="8" value="&lt;div&gt;&lt;div&gt;&lt;font face=&quot;Consolas, Courier New, monospace&quot; color=&quot;#9cdcfe&quot;&gt;&lt;span style=&quot;font-size: 14px;&quot;&gt;id&amp;nbsp; &amp;nbsp; &amp;nbsp; &amp;nbsp; &amp;nbsp; &amp;nbsp;&amp;nbsp;&lt;/span&gt;&lt;/font&gt;&lt;/div&gt;&lt;div&gt;&lt;font face=&quot;Consolas, Courier New, monospace&quot; color=&quot;#9cdcfe&quot;&gt;&lt;span style=&quot;font-size: 14px;&quot;&gt;name&amp;nbsp; &amp;nbsp; &amp;nbsp; &amp;nbsp; &amp;nbsp;&amp;nbsp;&lt;/span&gt;&lt;/font&gt;&lt;/div&gt;&lt;div&gt;&lt;font face=&quot;Consolas, Courier New, monospace&quot; color=&quot;#9cdcfe&quot;&gt;&lt;span style=&quot;font-size: 14px;&quot;&gt;email&amp;nbsp; &amp;nbsp; &amp;nbsp; &amp;nbsp; &amp;nbsp;&lt;/span&gt;&lt;/font&gt;&lt;/div&gt;&lt;div&gt;&lt;font face=&quot;Consolas, Courier New, monospace&quot; color=&quot;#9cdcfe&quot;&gt;&lt;span style=&quot;font-size: 14px;&quot;&gt;emailVerified&amp;nbsp;&lt;/span&gt;&lt;/font&gt;&lt;/div&gt;&lt;div&gt;&lt;font face=&quot;Consolas, Courier New, monospace&quot; color=&quot;#9cdcfe&quot;&gt;&lt;span style=&quot;font-size: 14px;&quot;&gt;image&lt;/span&gt;&lt;/font&gt;&lt;/div&gt;&lt;div&gt;&lt;font face=&quot;Consolas, Courier New, monospace&quot; color=&quot;#9cdcfe&quot;&gt;&lt;span style=&quot;font-size: 14px;&quot;&gt;contraseña&amp;nbsp; &amp;nbsp; &amp;nbsp; &amp;nbsp; &amp;nbsp;&lt;/span&gt;&lt;/font&gt;&lt;/div&gt;&lt;div&gt;&lt;font color=&quot;#ff6666&quot; face=&quot;Consolas, Courier New, monospace&quot;&gt;&lt;span style=&quot;font-size: 14px;&quot;&gt;accounts[]&amp;nbsp; &amp;nbsp; &amp;nbsp;&amp;nbsp;&lt;/span&gt;&lt;/font&gt;&lt;/div&gt;&lt;div&gt;&lt;font color=&quot;#ff6666&quot; face=&quot;Consolas, Courier New, monospace&quot;&gt;&lt;span style=&quot;font-size: 14px;&quot;&gt;sessions[]&lt;/span&gt;&lt;/font&gt;&lt;/div&gt;&lt;/div&gt;&lt;div&gt;&lt;span style=&quot;font-family: Consolas, &amp;quot;Courier New&amp;quot;, monospace; font-size: 14px; text-align: center; background-color: rgb(31, 31, 31);&quot;&gt;&lt;font color=&quot;#ff6666&quot;&gt;factura[]&lt;/font&gt;&lt;/span&gt;&lt;font color=&quot;#ff6666&quot; face=&quot;Consolas, Courier New, monospace&quot;&gt;&lt;span style=&quot;font-size: 14px;&quot;&gt;&lt;br&gt;&lt;/span&gt;&lt;/font&gt;&lt;/div&gt;" style="align=left;strokeColor=none;fillColor=none;spacingLeft=4;fontSize=12;verticalAlign=top;resizable=0;rotatable=0;part=1;html=1;" parent="7" vertex="1">
                    <mxGeometry y="50" width="160" height="180" as="geometry"/>
                </mxCell>
                <mxCell id="9" value="&lt;div style=&quot;color: rgb(204, 204, 204); background-color: rgb(31, 31, 31); font-family: Consolas, &amp;quot;Courier New&amp;quot;, monospace; line-height: 19px;&quot;&gt;&lt;div style=&quot;line-height: 19px;&quot;&gt;&lt;div style=&quot;line-height: 19px;&quot;&gt;&lt;span style=&quot;color: #4ec9b0;&quot;&gt;VerificationToken&lt;/span&gt;&lt;/div&gt;&lt;/div&gt;&lt;/div&gt;" style="swimlane;childLayout=stackLayout;horizontal=1;startSize=50;horizontalStack=0;rounded=1;fontSize=14;fontStyle=0;strokeWidth=2;resizeParent=0;resizeLast=1;shadow=0;dashed=0;align=center;arcSize=4;whiteSpace=wrap;html=1;" parent="1" vertex="1">
                    <mxGeometry x="1220" y="520" width="160" height="120" as="geometry"/>
                </mxCell>
                <mxCell id="10" value="&lt;div&gt;&lt;div&gt;&lt;font face=&quot;Consolas, Courier New, monospace&quot; color=&quot;#9cdcfe&quot;&gt;&lt;span style=&quot;font-size: 14px;&quot;&gt;identifier&amp;nbsp;&lt;/span&gt;&lt;/font&gt;&lt;/div&gt;&lt;div&gt;&lt;font face=&quot;Consolas, Courier New, monospace&quot; color=&quot;#9cdcfe&quot;&gt;&lt;span style=&quot;font-size: 14px;&quot;&gt;token&amp;nbsp; &amp;nbsp; &amp;nbsp;&amp;nbsp;&lt;/span&gt;&lt;/font&gt;&lt;/div&gt;&lt;div&gt;&lt;font face=&quot;Consolas, Courier New, monospace&quot; color=&quot;#9cdcfe&quot;&gt;&lt;span style=&quot;font-size: 14px;&quot;&gt;expires&lt;/span&gt;&lt;/font&gt;&lt;/div&gt;&lt;/div&gt;" style="align=left;strokeColor=none;fillColor=none;spacingLeft=4;fontSize=12;verticalAlign=top;resizable=0;rotatable=0;part=1;html=1;" parent="9" vertex="1">
                    <mxGeometry y="50" width="160" height="70" as="geometry"/>
                </mxCell>
                <mxCell id="15" value="" style="edgeStyle=entityRelationEdgeStyle;fontSize=12;html=1;endArrow=ERzeroToMany;startArrow=ERmandOne;exitX=1;exitY=0.25;exitDx=0;exitDy=0;" parent="1" source="8" target="GJvxXcti6jHUCAeI5Er2-4" edge="1">
                    <mxGeometry width="100" height="100" relative="1" as="geometry">
                        <mxPoint x="690" y="300" as="sourcePoint"/>
                        <mxPoint x="790" y="200" as="targetPoint"/>
                    </mxGeometry>
                </mxCell>
                <mxCell id="16" value="" style="edgeStyle=entityRelationEdgeStyle;fontSize=12;html=1;endArrow=ERzeroToMany;startArrow=ERmandOne;" parent="1" source="8" target="4" edge="1">
                    <mxGeometry width="100" height="100" relative="1" as="geometry">
                        <mxPoint x="280" y="295" as="sourcePoint"/>
                        <mxPoint x="400" y="610" as="targetPoint"/>
                    </mxGeometry>
                </mxCell>
                <mxCell id="17" value="&lt;div style=&quot;color: rgb(204, 204, 204); background-color: rgb(31, 31, 31); font-family: Consolas, &amp;quot;Courier New&amp;quot;, monospace; line-height: 19px;&quot;&gt;&lt;div style=&quot;line-height: 19px;&quot;&gt;&lt;span style=&quot;color: #4ec9b0;&quot;&gt;Factura&lt;/span&gt;&lt;/div&gt;&lt;/div&gt;" style="swimlane;childLayout=stackLayout;horizontal=1;startSize=50;horizontalStack=0;rounded=1;fontSize=14;fontStyle=0;strokeWidth=2;resizeParent=0;resizeLast=1;shadow=0;dashed=0;align=center;arcSize=4;whiteSpace=wrap;html=1;" parent="1" vertex="1">
                    <mxGeometry x="50" y="610" width="160" height="160" as="geometry"/>
                </mxCell>
                <mxCell id="18" value="&lt;div&gt;&lt;font face=&quot;Consolas, Courier New, monospace&quot; color=&quot;#9cdcfe&quot;&gt;&lt;span style=&quot;font-size: 14px;&quot;&gt;id&lt;/span&gt;&lt;/font&gt;&lt;/div&gt;&lt;div&gt;&lt;font face=&quot;Consolas, Courier New, monospace&quot; color=&quot;#9cdcfe&quot;&gt;&lt;span style=&quot;font-size: 14px;&quot;&gt;fecha&lt;/span&gt;&lt;/font&gt;&lt;/div&gt;&lt;div&gt;&lt;div&gt;&lt;font color=&quot;#ff6666&quot; face=&quot;Consolas, Courier New, monospace&quot;&gt;&lt;span style=&quot;font-size: 14px;&quot;&gt;user&lt;/span&gt;&lt;/font&gt;&lt;/div&gt;&lt;div&gt;&lt;span style=&quot;font-family: Consolas, &amp;quot;Courier New&amp;quot;, monospace; font-size: 14px;&quot;&gt;&lt;font color=&quot;#ff6666&quot;&gt;userId&lt;/font&gt;&lt;/span&gt;&lt;/div&gt;&lt;/div&gt;&lt;div&gt;&lt;span style=&quot;color: rgb(255, 102, 102); font-family: Consolas, &amp;quot;Courier New&amp;quot;, monospace; font-size: 14px; text-align: center; background-color: rgb(31, 31, 31);&quot;&gt;productos[]&lt;/span&gt;&lt;span style=&quot;font-family: Consolas, &amp;quot;Courier New&amp;quot;, monospace; font-size: 14px;&quot;&gt;&lt;font color=&quot;#ff6666&quot;&gt;&lt;br&gt;&lt;/font&gt;&lt;/span&gt;&lt;/div&gt;" style="align=left;strokeColor=none;fillColor=none;spacingLeft=4;fontSize=12;verticalAlign=top;resizable=0;rotatable=0;part=1;html=1;" parent="17" vertex="1">
                    <mxGeometry y="50" width="160" height="110" as="geometry"/>
                </mxCell>
                <mxCell id="19" value="&lt;div style=&quot;color: rgb(204, 204, 204); background-color: rgb(31, 31, 31); font-family: Consolas, &amp;quot;Courier New&amp;quot;, monospace; line-height: 19px;&quot;&gt;&lt;div style=&quot;line-height: 19px;&quot;&gt;&lt;span style=&quot;color: #4ec9b0;&quot;&gt;Producto&lt;/span&gt;&lt;/div&gt;&lt;/div&gt;" style="swimlane;childLayout=stackLayout;horizontal=1;startSize=50;horizontalStack=0;rounded=1;fontSize=14;fontStyle=0;strokeWidth=2;resizeParent=0;resizeLast=1;shadow=0;dashed=0;align=center;arcSize=4;whiteSpace=wrap;html=1;" parent="1" vertex="1">
                    <mxGeometry x="380" y="680" width="160" height="250" as="geometry"/>
                </mxCell>
                <mxCell id="20" value="&lt;div&gt;&lt;div&gt;&lt;font face=&quot;Consolas, Courier New, monospace&quot; color=&quot;#9cdcfe&quot;&gt;&lt;span style=&quot;font-size: 14px;&quot;&gt;id&lt;/span&gt;&lt;/font&gt;&lt;/div&gt;&lt;div&gt;&lt;font face=&quot;Consolas, Courier New, monospace&quot; color=&quot;#9cdcfe&quot;&gt;&lt;span style=&quot;font-size: 14px;&quot;&gt;nombre&lt;/span&gt;&lt;/font&gt;&lt;/div&gt;&lt;div&gt;&lt;font face=&quot;Consolas, Courier New, monospace&quot; color=&quot;#9cdcfe&quot;&gt;&lt;span style=&quot;font-size: 14px;&quot;&gt;img&lt;/span&gt;&lt;/font&gt;&lt;/div&gt;&lt;div&gt;&lt;font face=&quot;Consolas, Courier New, monospace&quot; color=&quot;#9cdcfe&quot;&gt;&lt;span style=&quot;font-size: 14px;&quot;&gt;cantidad&lt;/span&gt;&lt;/font&gt;&lt;/div&gt;&lt;div&gt;&lt;font face=&quot;Consolas, Courier New, monospace&quot; color=&quot;#9cdcfe&quot;&gt;&lt;span style=&quot;font-size: 14px;&quot;&gt;categoria&lt;/span&gt;&lt;/font&gt;&lt;/div&gt;&lt;div&gt;&lt;font face=&quot;Consolas, Courier New, monospace&quot; color=&quot;#9cdcfe&quot;&gt;&lt;span style=&quot;font-size: 14px;&quot;&gt;descripcion&lt;/span&gt;&lt;/font&gt;&lt;/div&gt;&lt;div&gt;&lt;font face=&quot;Consolas, Courier New, monospace&quot; color=&quot;#9cdcfe&quot;&gt;&lt;span style=&quot;font-size: 14px;&quot;&gt;precio&lt;/span&gt;&lt;/font&gt;&lt;/div&gt;&lt;/div&gt;&lt;div&gt;&lt;div&gt;&lt;font color=&quot;#ff6666&quot;&gt;&lt;span style=&quot;font-family: Consolas, &amp;quot;Courier New&amp;quot;, monospace; font-size: 14px; text-align: center; background-color: rgb(31, 31, 31);&quot;&gt;factura&lt;/span&gt;&lt;br&gt;&lt;/font&gt;&lt;/div&gt;&lt;div&gt;&lt;font color=&quot;#ff6666&quot;&gt;&lt;span style=&quot;background-color: rgb(31, 31, 31); font-family: Consolas, &amp;quot;Courier New&amp;quot;, monospace; font-size: 14px; text-align: center;&quot;&gt;factura&lt;/span&gt;&lt;span style=&quot;font-family: Consolas, &amp;quot;Courier New&amp;quot;, monospace; font-size: 14px;&quot;&gt;Id&lt;/span&gt;&lt;/font&gt;&lt;/div&gt;&lt;/div&gt;&lt;div&gt;&lt;span style=&quot;color: rgb(78, 201, 176); font-family: Consolas, &amp;quot;Courier New&amp;quot;, monospace; font-size: 14px; text-align: center; background-color: rgb(31, 31, 31);&quot;&gt;imagen[]&lt;/span&gt;&lt;font color=&quot;#ff6666&quot;&gt;&lt;span style=&quot;font-family: Consolas, &amp;quot;Courier New&amp;quot;, monospace; font-size: 14px;&quot;&gt;&lt;br&gt;&lt;/span&gt;&lt;/font&gt;&lt;/div&gt;" style="align=left;strokeColor=none;fillColor=none;spacingLeft=4;fontSize=12;verticalAlign=top;resizable=0;rotatable=0;part=1;html=1;" parent="19" vertex="1">
                    <mxGeometry y="50" width="160" height="200" as="geometry"/>
                </mxCell>
                <mxCell id="21" value="" style="edgeStyle=entityRelationEdgeStyle;fontSize=12;html=1;endArrow=ERzeroToMany;startArrow=ERmandOne;exitX=1.02;exitY=0.7;exitDx=0;exitDy=0;exitPerimeter=0;entryX=1;entryY=0;entryDx=0;entryDy=0;" parent="1" source="8" target="18" edge="1">
                    <mxGeometry width="100" height="100" relative="1" as="geometry">
                        <mxPoint x="310" y="530" as="sourcePoint"/>
                        <mxPoint x="500" y="585" as="targetPoint"/>
                    </mxGeometry>
                </mxCell>
                <mxCell id="22" value="" style="edgeStyle=entityRelationEdgeStyle;fontSize=12;html=1;endArrow=ERzeroToMany;startArrow=ERmandOne;exitX=0;exitY=0.364;exitDx=0;exitDy=0;entryX=0.994;entryY=0.395;entryDx=0;entryDy=0;entryPerimeter=0;exitPerimeter=0;" parent="1" source="20" target="18" edge="1">
                    <mxGeometry width="100" height="100" relative="1" as="geometry">
                        <mxPoint x="313.1999999999998" y="562.0000000000002" as="sourcePoint"/>
                        <mxPoint x="400" y="860" as="targetPoint"/>
                    </mxGeometry>
                </mxCell>
                <mxCell id="23" value="&lt;div style=&quot;color: rgb(204, 204, 204); background-color: rgb(31, 31, 31); font-family: Consolas, &amp;quot;Courier New&amp;quot;, monospace; line-height: 19px;&quot;&gt;&lt;div style=&quot;line-height: 19px;&quot;&gt;&lt;span style=&quot;color: #4ec9b0;&quot;&gt;TodosProductos&lt;/span&gt;&lt;/div&gt;&lt;/div&gt;" style="swimlane;childLayout=stackLayout;horizontal=1;startSize=50;horizontalStack=0;rounded=1;fontSize=14;fontStyle=0;strokeWidth=2;resizeParent=0;resizeLast=1;shadow=0;dashed=0;align=center;arcSize=4;whiteSpace=wrap;html=1;" parent="1" vertex="1">
                    <mxGeometry x="940" y="30" width="160" height="240" as="geometry"/>
                </mxCell>
                <mxCell id="24" value="&lt;div&gt;&lt;div&gt;&lt;font face=&quot;Consolas, Courier New, monospace&quot; color=&quot;#9cdcfe&quot;&gt;&lt;span style=&quot;font-size: 14px;&quot;&gt;id&lt;/span&gt;&lt;/font&gt;&lt;/div&gt;&lt;div&gt;&lt;font face=&quot;Consolas, Courier New, monospace&quot; color=&quot;#9cdcfe&quot;&gt;&lt;span style=&quot;font-size: 14px;&quot;&gt;nombre&lt;/span&gt;&lt;/font&gt;&lt;/div&gt;&lt;div&gt;&lt;font face=&quot;Consolas, Courier New, monospace&quot; color=&quot;#9cdcfe&quot;&gt;&lt;span style=&quot;font-size: 14px;&quot;&gt;cantidad&lt;/span&gt;&lt;/font&gt;&lt;/div&gt;&lt;div&gt;&lt;font face=&quot;Consolas, Courier New, monospace&quot; color=&quot;#9cdcfe&quot;&gt;&lt;span style=&quot;font-size: 14px;&quot;&gt;categoria&lt;/span&gt;&lt;/font&gt;&lt;/div&gt;&lt;div&gt;&lt;font face=&quot;Consolas, Courier New, monospace&quot; color=&quot;#9cdcfe&quot;&gt;&lt;span style=&quot;font-size: 14px;&quot;&gt;descripcion&lt;/span&gt;&lt;/font&gt;&lt;/div&gt;&lt;div&gt;&lt;font face=&quot;Consolas, Courier New, monospace&quot; color=&quot;#9cdcfe&quot;&gt;&lt;span style=&quot;font-size: 14px;&quot;&gt;precio&lt;/span&gt;&lt;/font&gt;&lt;/div&gt;&lt;/div&gt;&lt;div&gt;&lt;font color=&quot;#ff6666&quot;&gt;&lt;span style=&quot;font-family: Consolas, &amp;quot;Courier New&amp;quot;, monospace; font-size: 14px; text-align: center; background-color: rgb(31, 31, 31);&quot;&gt;imagenProducto[]&lt;/span&gt;&lt;/font&gt;&lt;/div&gt;" style="align=left;strokeColor=none;fillColor=none;spacingLeft=4;fontSize=12;verticalAlign=top;resizable=0;rotatable=0;part=1;html=1;" parent="23" vertex="1">
                    <mxGeometry y="50" width="160" height="190" as="geometry"/>
                </mxCell>
                <mxCell id="26" value="&lt;div style=&quot;color: rgb(204, 204, 204); background-color: rgb(31, 31, 31); font-family: Consolas, &amp;quot;Courier New&amp;quot;, monospace; line-height: 19px;&quot;&gt;&lt;div style=&quot;line-height: 19px;&quot;&gt;&lt;span style=&quot;color: #4ec9b0;&quot;&gt;ImagenProducto&lt;/span&gt;&lt;/div&gt;&lt;/div&gt;" style="swimlane;childLayout=stackLayout;horizontal=1;startSize=50;horizontalStack=0;rounded=1;fontSize=14;fontStyle=0;strokeWidth=2;resizeParent=0;resizeLast=1;shadow=0;dashed=0;align=center;arcSize=4;whiteSpace=wrap;html=1;" parent="1" vertex="1">
                    <mxGeometry x="1240" y="100" width="160" height="160" as="geometry"/>
                </mxCell>
                <mxCell id="27" value="&lt;div&gt;&lt;font face=&quot;Consolas, Courier New, monospace&quot; color=&quot;#9cdcfe&quot;&gt;&lt;span style=&quot;font-size: 14px;&quot;&gt;id&amp;nbsp; &amp;nbsp; &amp;nbsp; &amp;nbsp; &amp;nbsp; &amp;nbsp;&lt;/span&gt;&lt;/font&gt;&lt;/div&gt;&lt;div&gt;&lt;font face=&quot;Consolas, Courier New, monospace&quot; color=&quot;#9cdcfe&quot;&gt;&lt;span style=&quot;font-size: 14px;&quot;&gt;src&lt;/span&gt;&lt;/font&gt;&lt;/div&gt;&lt;div&gt;&lt;div&gt;&lt;font color=&quot;#ff6666&quot;&gt;&lt;span style=&quot;font-family: Consolas, &amp;quot;Courier New&amp;quot;, monospace; font-size: 14px; text-align: center; background-color: rgb(31, 31, 31);&quot;&gt;todosProducto&lt;/span&gt;&lt;br&gt;&lt;/font&gt;&lt;/div&gt;&lt;div&gt;&lt;font color=&quot;#ff6666&quot;&gt;&lt;span style=&quot;background-color: rgb(31, 31, 31); font-family: Consolas, &amp;quot;Courier New&amp;quot;, monospace; font-size: 14px; text-align: center;&quot;&gt;todosProductos&lt;/span&gt;&lt;span style=&quot;font-family: Consolas, &amp;quot;Courier New&amp;quot;, monospace; font-size: 14px;&quot;&gt;Id&lt;/span&gt;&lt;/font&gt;&lt;/div&gt;&lt;/div&gt;" style="align=left;strokeColor=none;fillColor=none;spacingLeft=4;fontSize=12;verticalAlign=top;resizable=0;rotatable=0;part=1;html=1;" parent="26" vertex="1">
                    <mxGeometry y="50" width="160" height="110" as="geometry"/>
                </mxCell>
                <mxCell id="28" value="" style="edgeStyle=entityRelationEdgeStyle;fontSize=12;html=1;endArrow=ERzeroToMany;startArrow=ERmandOne;exitX=0.995;exitY=0.174;exitDx=0;exitDy=0;entryX=-0.021;entryY=0.168;entryDx=0;entryDy=0;entryPerimeter=0;exitPerimeter=0;" parent="1" source="24" target="27" edge="1">
                    <mxGeometry width="100" height="100" relative="1" as="geometry">
                        <mxPoint x="1340.96" y="66.59000000000015" as="sourcePoint"/>
                        <mxPoint x="1130" y="10" as="targetPoint"/>
                    </mxGeometry>
                </mxCell>
                <mxCell id="29" value="&lt;div style=&quot;color: rgb(204, 204, 204); background-color: rgb(31, 31, 31); font-family: Consolas, &amp;quot;Courier New&amp;quot;, monospace; line-height: 19px;&quot;&gt;&lt;div style=&quot;line-height: 19px;&quot;&gt;&lt;span style=&quot;color: #4ec9b0;&quot;&gt;imagen&lt;/span&gt;&lt;/div&gt;&lt;/div&gt;" style="swimlane;childLayout=stackLayout;horizontal=1;startSize=50;horizontalStack=0;rounded=1;fontSize=14;fontStyle=0;strokeWidth=2;resizeParent=0;resizeLast=1;shadow=0;dashed=0;align=center;arcSize=4;whiteSpace=wrap;html=1;" parent="1" vertex="1">
                    <mxGeometry x="640" y="810" width="160" height="160" as="geometry"/>
                </mxCell>
                <mxCell id="30" value="&lt;div&gt;&lt;font face=&quot;Consolas, Courier New, monospace&quot; color=&quot;#9cdcfe&quot;&gt;&lt;span style=&quot;font-size: 14px;&quot;&gt;id&amp;nbsp; &amp;nbsp; &amp;nbsp; &amp;nbsp; &amp;nbsp; &amp;nbsp;&lt;/span&gt;&lt;/font&gt;&lt;/div&gt;&lt;div&gt;&lt;span style=&quot;font-family: Consolas, &amp;quot;Courier New&amp;quot;, monospace; font-size: 14px; text-align: center; background-color: rgb(42, 37, 47);&quot;&gt;&lt;font color=&quot;#9cdcfe&quot;&gt;src&lt;/font&gt;&lt;/span&gt;&lt;/div&gt;&lt;div&gt;&lt;span style=&quot;background-color: rgb(31, 31, 31); font-family: Consolas, &amp;quot;Courier New&amp;quot;, monospace; font-size: 14px; text-align: center; color: rgb(255, 102, 102);&quot;&gt;productos&lt;/span&gt;&lt;br&gt;&lt;/div&gt;&lt;div&gt;&lt;div&gt;&lt;font color=&quot;#ff6666&quot;&gt;&lt;span style=&quot;background-color: rgb(31, 31, 31); font-family: Consolas, &amp;quot;Courier New&amp;quot;, monospace; font-size: 14px; text-align: center;&quot;&gt;productos&amp;nbsp;&lt;/span&gt;&lt;span style=&quot;font-family: Consolas, &amp;quot;Courier New&amp;quot;, monospace; font-size: 14px;&quot;&gt;Id&lt;/span&gt;&lt;/font&gt;&lt;/div&gt;&lt;/div&gt;" style="align=left;strokeColor=none;fillColor=none;spacingLeft=4;fontSize=12;verticalAlign=top;resizable=0;rotatable=0;part=1;html=1;" parent="29" vertex="1">
                    <mxGeometry y="50" width="160" height="110" as="geometry"/>
                </mxCell>
                <mxCell id="31" value="" style="edgeStyle=entityRelationEdgeStyle;fontSize=12;html=1;endArrow=ERzeroToMany;startArrow=ERmandOne;entryX=-0.01;entryY=0.318;entryDx=0;entryDy=0;entryPerimeter=0;" parent="1" source="20" target="30" edge="1">
                    <mxGeometry width="100" height="100" relative="1" as="geometry">
                        <mxPoint x="533.96" y="886.5900000000001" as="sourcePoint"/>
                        <mxPoint x="292.99999999999994" y="800.0000000000002" as="targetPoint"/>
                    </mxGeometry>
                </mxCell>
            </root>
        </mxGraphModel>
    </diagram>
</mxfile>